<svg width="256" height="256" viewBox="0 0 256 256" fill="none" xmlns="http://www.w3.org/2000/svg">
<path d="M240 2H16C8.26801 2 2 8.26801 2 16V240C2 247.732 8.26801 254 16 254H240C247.732 254 254 247.732 254 240V16C254 8.26801 247.732 2 240 2Z" fill="white" fill-opacity="0.24"/>
<path d="M240 250V254H228V250H240ZM254 240C254 247.732 247.732 254 240 254V250C245.523 250 250 245.523 250 240V228H254V240ZM220 250V254H196V250H220ZM188 250V254H164V250H188ZM156 250V254H132V250H156ZM124 250V254H100V250H124ZM92 250V254H68V250H92ZM60 250V254H36V250H60ZM28 250V254H16V250H28ZM2 240V228H6V240C6 245.523 10.4772 250 16 250V254C8.26801 254 2 247.732 2 240ZM6 196V220H2V196H6ZM254 196V220H250V196H254ZM6 164V188H2V164H6ZM254 164V188H250V164H254ZM6 132V156H2V132H6ZM254 132V156H250V132H254ZM6 100V124H2V100H6ZM254 100V124H250V100H254ZM6 68V92H2V68H6ZM254 68V92H250V68H254ZM6 36V60H2V36H6ZM254 36V60H250V36H254ZM2 16C2 8.26801 8.26801 2 16 2H28V6H16C10.4772 6 6 10.4772 6 16V28H2V16ZM254 28H250V16C250 10.4772 245.523 6 240 6H228V2H240C247.732 2 254 8.26801 254 16V28ZM60 2V6H36V2H60ZM92 2V6H68V2H92ZM124 2V6H100V2H124ZM156 2V6H132V2H156ZM188 2V6H164V2H188ZM220 2V6H196V2H220Z" fill="white" fill-opacity="0.32"/>
<path d="M126.147 126.08C127.198 125.078 128.859 125.086 129.886 126.115L137.886 134.115C138.928 135.158 138.928 136.842 137.886 137.885C137.366 138.405 136.683 138.666 136.001 138.666C135.318 138.666 134.634 138.405 134.114 137.885L130.667 134.438V149.334C130.667 150.808 129.472 152 128.001 152C126.529 152 125.333 150.808 125.333 149.334V134.283L121.854 137.643C120.796 138.669 119.107 138.635 118.083 137.576C117.059 136.515 117.089 134.829 118.147 133.805L126.147 126.08ZM127.999 104C134.882 104 140.947 108.43 143.134 114.787C149.637 115.67 154.667 121.259 154.667 128C154.667 131.256 153.482 134.39 151.333 136.824C150.805 137.419 150.072 137.725 149.333 137.725C148.706 137.725 148.077 137.507 147.567 137.059C146.466 136.08 146.36 134.398 147.335 133.291C148.623 131.835 149.333 129.952 149.333 128C149.333 123.589 145.744 120 141.333 120H141.065C139.797 120 138.703 119.104 138.452 117.859C137.455 112.921 133.06 109.334 127.999 109.334C122.941 109.334 118.544 112.921 117.55 117.859C117.299 119.104 116.202 120 114.933 120H114.667C110.256 120 106.667 123.589 106.667 128C106.667 129.952 107.376 131.835 108.667 133.291C109.64 134.398 109.536 136.08 108.433 137.059C107.329 138.035 105.642 137.925 104.669 136.824C102.517 134.39 101.333 131.256 101.333 128C101.333 121.259 106.362 115.67 112.866 114.787C115.055 108.43 121.119 104 127.999 104Z" fill="white" fill-opacity="0.8"/>
</svg>
