<svg width="24" height="24" viewBox="0 0 24 24" fill="none" xmlns="http://www.w3.org/2000/svg">
<path fill-rule="evenodd" clip-rule="evenodd" d="M5.09114 4.004C5.06014 4.001 5.03014 4 5.00014 4C4.73614 4 4.48114 4.104 4.29314 4.293C4.08314 4.503 3.97714 4.795 4.00414 5.09L4.38314 9.261C4.42514 9.718 4.62714 10.149 4.95214 10.474L13.9481 19.471C14.6501 20.175 15.9241 20.14 16.6641 19.401L19.4021 16.663C20.1681 15.896 20.1991 14.679 19.4711 13.949L10.4741 4.952C10.1491 4.626 9.71914 4.425 9.26114 4.383L5.09114 4.004Z" fill="white" stroke="black" stroke-width="2"/>
<path d="M12 17.5L17.5 12" stroke="black" stroke-width="2"/>
</svg>
