<svg width="32" height="32" viewBox="0 0 32 32" fill="none" xmlns="http://www.w3.org/2000/svg">
<path d="M8.5 29C8.5 29.5523 8.94772 30 9.5 30C10.0523 30 10.5 29.5523 10.5 29H9.5H8.5ZM10.2071 2.29289C9.81658 1.90237 9.18342 1.90237 8.79289 2.29289L2.42893 8.65685C2.03841 9.04738 2.03841 9.68054 2.42893 10.0711C2.81946 10.4616 3.45262 10.4616 3.84315 10.0711L9.5 4.41421L15.1569 10.0711C15.5474 10.4616 16.1805 10.4616 16.5711 10.0711C16.9616 9.68054 16.9616 9.04738 16.5711 8.65685L10.2071 2.29289ZM9.5 29H10.5L10.5 3H9.5H8.5L8.5 29H9.5Z" fill="white"/>
<path d="M21.5 3C21.5 2.44772 21.9477 2 22.5 2C23.0523 2 23.5 2.44772 23.5 3H22.5H21.5ZM23.2071 29.7071C22.8166 30.0976 22.1834 30.0976 21.7929 29.7071L15.4289 23.3431C15.0384 22.9526 15.0384 22.3195 15.4289 21.9289C15.8195 21.5384 16.4526 21.5384 16.8431 21.9289L22.5 27.5858L28.1569 21.9289C28.5474 21.5384 29.1805 21.5384 29.5711 21.9289C29.9616 22.3195 29.9616 22.9526 29.5711 23.3431L23.2071 29.7071ZM22.5 3H23.5V29H22.5H21.5V3H22.5Z" fill="white"/>
</svg>
