<svg width="32" height="32" viewBox="0 0 32 32" fill="none" xmlns="http://www.w3.org/2000/svg">
<path d="M3 8.5C2.44772 8.5 2 8.94772 2 9.5C2 10.0523 2.44772 10.5 3 10.5V9.5V8.5ZM29.7071 10.2071C30.0976 9.81658 30.0976 9.18342 29.7071 8.79289L23.3431 2.42893C22.9526 2.03841 22.3195 2.03841 21.9289 2.42893C21.5384 2.81946 21.5384 3.45262 21.9289 3.84315L27.5858 9.5L21.9289 15.1569C21.5384 15.5474 21.5384 16.1805 21.9289 16.5711C22.3195 16.9616 22.9526 16.9616 23.3431 16.5711L29.7071 10.2071ZM3 9.5V10.5H29V9.5V8.5H3V9.5Z" fill="white"/>
<path d="M29 21.5C29.5523 21.5 30 21.9477 30 22.5C30 23.0523 29.5523 23.5 29 23.5V22.5V21.5ZM2.29289 23.2071C1.90237 22.8166 1.90237 22.1834 2.29289 21.7929L8.65685 15.4289C9.04738 15.0384 9.68054 15.0384 10.0711 15.4289C10.4616 15.8195 10.4616 16.4526 10.0711 16.8431L4.41421 22.5L10.0711 28.1569C10.4616 28.5474 10.4616 29.1805 10.0711 29.5711C9.68054 29.9616 9.04738 29.9616 8.65685 29.5711L2.29289 23.2071ZM29 22.5V23.5H3V22.5V21.5H29V22.5Z" fill="white"/>
</svg>
