<svg width="24" height="24" viewBox="0 0 24 24" fill="none" xmlns="http://www.w3.org/2000/svg">
<path d="M7.99982 7L7.99982 20C7.99982 20.6 7.59982 21 6.99982 21C6.39982 21 5.99982 20.6 5.99982 20L5.99982 6.9L4.79982 8.5C4.49982 8.9 3.79982 9 3.39982 8.7C2.99982 8.4 2.89982 7.7 3.19982 7.3L6.19982 3.4C6.39982 3.1 6.69982 3 6.99982 3C7.29982 3 7.59982 3.1 7.79982 3.4L10.7998 7.4C10.8998 7.6 10.9998 7.8 10.9998 8C10.9998 8.3 10.8998 8.6 10.5998 8.8C10.1998 9.1 9.49982 9 9.19982 8.6L7.99982 7ZM14.9998 17L14.9998 4C14.9998 3.4 15.3998 3 15.9998 3C16.5998 3 16.9998 3.4 16.9998 4V17.1L18.1998 15.5C18.4998 15.1 19.1998 15 19.5998 15.3C19.8998 15.5 19.9998 15.8 19.9998 16.1C19.9998 16.3 19.8998 16.5 19.7998 16.7L16.7998 20.6C16.5998 20.9 16.2998 21 15.9998 21C15.6998 21 15.3998 20.9 15.1998 20.6L12.1998 16.6C11.8998 16.2 11.9998 15.5 12.3998 15.2C12.7998 14.9 13.4998 15 13.7998 15.4L14.9998 17Z" fill="white"/>
</svg>
