<svg width="24" height="24" viewBox="0 0 24 24" fill="none" xmlns="http://www.w3.org/2000/svg">
<path d="M17 7.99982H4C3.4 7.99982 3 7.59982 3 6.99982C3 6.39982 3.4 5.99982 4 5.99982H17.1L15.5 4.79982C15.1 4.49982 15 3.79982 15.3 3.39982C15.6 2.99982 16.3 2.89982 16.7 3.19982L20.6 6.19982C20.9 6.39982 21 6.69982 21 6.99982C21 7.29982 20.9 7.59982 20.6 7.79982L16.6 10.7998C16.4 10.8998 16.2 10.9998 16 10.9998C15.7 10.9998 15.4 10.8998 15.2 10.5998C14.9 10.1998 15 9.49982 15.4 9.19982L17 7.99982ZM7 14.9998H20C20.6 14.9998 21 15.3998 21 15.9998C21 16.5998 20.6 16.9998 20 16.9998H6.9L8.5 18.1998C8.9 18.4998 9 19.1998 8.7 19.5998C8.5 19.8998 8.2 19.9998 7.9 19.9998C7.7 19.9998 7.5 19.8998 7.3 19.7998L3.4 16.7998C3.1 16.5998 3 16.2998 3 15.9998C3 15.6998 3.1 15.3998 3.4 15.1998L7.4 12.1998C7.8 11.8998 8.5 11.9998 8.8 12.3998C9.1 12.7998 9 13.4998 8.6 13.7998L7 14.9998Z" fill="white"/>
</svg>
