<svg width="24" height="24" viewBox="0 0 24 24" fill="none" xmlns="http://www.w3.org/2000/svg">
<path d="M9.2 12H14.8M4 12H18.5" stroke="white" stroke-width="2" stroke-linecap="round" stroke-linejoin="round"/>
<path d="M14.4844 8.20312C14.4727 7.22717 14.0573 6.89062 13.4532 6.48437C12.849 6.07292 12.0886 5.86719 11.1719 5.86719C10.5157 5.86719 9.94797 5.97135 9.4688 6.17969C8.98963 6.38281 8.61724 6.66406 8.35161 7.02344C8.0912 7.3776 7.96099 7.78125 7.96099 8.23438C7.96099 8.61458 8.04953 8.94271 8.22661 9.21875C8.40891 9.49479 8.64588 9.72656 8.93755 9.91406C9.23443 10.0964 9.55213 10.25 9.89068 10.375C10.2292 10.4948 10.5547 10.5938 10.8672 10.6719L12.4297 11.0781C12.9402 11.2031 13.4636 11.3724 14.0001 11.5859C14.5365 11.7995 15.0339 12.0807 15.4922 12.4297C15.9506 12.7786 16.3204 13.2109 16.6016 13.7266C16.8881 14.2422 17.0313 14.8594 17.0313 15.5781C17.0313 16.4844 16.7969 17.2891 16.3282 17.9922C15.8646 18.6953 15.1902 19.25 14.3047 19.6562C13.4245 20.0625 12.3594 20.2656 11.1094 20.2656C9.91151 20.2656 8.87505 20.0755 8.00005 19.6953C7.12505 19.3151 6.44015 18.776 5.94536 18.0781C5.45057 17.375 5.20127 16.5401 5.12505 15.5781C5 14 7.54693 14.2858 7.54693 15.5781C7.54693 16.1581 7.7813 16.638 8.10943 17.0234C8.44276 17.4036 8.86724 17.6875 9.38286 17.875C9.9037 18.0573 10.474 18.1484 11.0938 18.1484C11.7761 18.1484 12.3829 18.0417 12.9141 17.8281C13.4506 17.6094 13.8724 17.3073 14.1797 16.9219C14.487 16.5313 14.6407 16.0755 14.6407 15.5547C14.6407 15.0807 14.5053 14.6927 14.2344 14.3906C13.9688 14.0885 13.6068 13.8385 13.1485 13.6406C12.6954 13.4427 12.1823 13.2682 11.6094 13.1172L9.7188 12.6016C8.43755 12.2526 7.42193 11.7396 6.67193 11.0625C5.92713 10.3854 5.55474 9.48958 5.55474 8.375C5.55474 7.45312 5.80474 6.64844 6.30474 5.96094C6.80474 5.27344 7.48182 4.73958 8.33599 4.35938C9.19016 3.97396 10.1537 3.78125 11.2266 3.78125C12.3099 3.78125 13.2657 3.97135 14.0938 4.35156C14.9271 4.73177 15.5834 5.25521 16.0626 5.92187C16.5417 6.58333 16.7846 7.05104 16.8126 8.20312C16.8405 9.3552 14.4962 9.17908 14.4844 8.20312Z" fill="white"/>
</svg>
