<svg width="32" height="32" viewBox="0 0 32 32" fill="none" xmlns="http://www.w3.org/2000/svg">
<path d="M18.0471 13.3823C18.0188 12.5505 18.5085 11.7881 19.2767 11.468L28.6154 7.57692C29.2741 7.30247 30 7.78642 30 8.5V20.908C30 21.6584 29.5799 22.3457 28.9121 22.6879L19.9472 27.2817C19.295 27.6159 18.5168 27.1582 18.4918 26.4258L18.0471 13.3823Z" fill="white"/>
<path d="M10.0471 11.3823C10.0188 10.5505 10.5085 9.78813 11.2767 9.46803L20.6154 5.57692C21.2741 5.30247 22 5.78642 22 6.5V18.908C22 19.6584 21.5799 20.3457 20.9121 20.6879L11.9472 25.2817C11.295 25.6159 10.5168 25.1582 10.4918 24.4258L10.0471 11.3823Z" fill="white" fill-opacity="0.8"/>
<path d="M2.04712 9.38232C2.01877 8.55054 2.50849 7.78813 3.27673 7.46803L12.6154 3.57692C13.2741 3.30247 14 3.78642 14 4.5V16.908C14 17.6584 13.5799 18.3457 12.9121 18.6879L3.94724 23.2817C3.29504 23.6159 2.51676 23.1582 2.49179 22.4258L2.04712 9.38232Z" fill="white" fill-opacity="0.32"/>
</svg>
