<svg width="32" height="32" viewBox="0 0 32 32" fill="none" xmlns="http://www.w3.org/2000/svg">
<g clip-path="url(#clip0_34_16)">
<path d="M2 4C2 2.89543 2.89543 2 4 2H12C13.1046 2 14 2.89543 14 4V24C14 27.3137 11.3137 30 8 30C4.68629 30 2 27.3137 2 24V4Z" fill="white"/>
<path d="M18.3848 5.41421C19.1658 4.63317 20.4322 4.63317 21.2132 5.41421L26.8701 11.0711C27.6511 11.8521 27.6511 13.1184 26.8701 13.8995L12.7279 28.0416C10.3848 30.3848 6.58579 30.3848 4.24265 28.0416C1.8995 25.6985 1.8995 21.8995 4.24265 19.5563L18.3848 5.41421Z" fill="white" fill-opacity="0.64"/>
<path d="M28 18C29.1046 18 30 18.8954 30 20V28C30 29.1046 29.1046 30 28 30L12.5 30L25 18H28Z" fill="white" fill-opacity="0.32"/>
</g>
<defs>
<clipPath id="clip0_34_16">
<rect width="32" height="32" fill="white"/>
</clipPath>
</defs>
</svg>
