<svg width="24" height="24" viewBox="0 0 24 24" fill="none" xmlns="http://www.w3.org/2000/svg">
<path d="M19 2C20.6569 2 22 3.34315 22 5V19C22 20.6569 20.6569 22 19 22H5C3.34315 22 2 20.6569 2 19V5C2 3.34315 3.34315 2 5 2H19ZM5 3C3.89543 3 3 3.89543 3 5V19C3 20.1046 3.89543 21 5 21H19C20.1046 21 21 20.1046 21 19V5C21 3.89543 20.1046 3 19 3H5Z" fill="white"/>
<path d="M11.5 14.5H4V19C4 19.5523 4.44771 20 5 20H11.5V14.5Z" fill="#0059FF"/>
<path d="M11.5 4H5C4.44771 4 4 4.44772 4 5V9.5H11.5V4Z" fill="#FF0000"/>
<path d="M12.5 20H19C19.5523 20 20 19.5523 20 19V12H12.5V20Z" fill="#FFFEFE"/>
<path d="M12.5 12H20V5C20 4.44772 19.5523 4 19 4H12.5V12Z" fill="black"/>
<path d="M4 9.5H11.5V14.5H4V9.5Z" fill="#4DFF00"/>
</svg>
