<svg width="24" height="24" viewBox="0 0 24 24" fill="none" xmlns="http://www.w3.org/2000/svg">
<path d="M7 12.9744H19C19.6 12.9744 20 12.5744 20 11.9744C20 11.3744 19.6 10.9744 19 10.9744H6.9L8.5 9.77443C8.9 9.47443 9 8.77443 8.7 8.37443C8.4 7.97443 7.7 7.87443 7.3 8.17443L3.4 11.1744C3.1 11.3744 3 11.6744 3 11.9744C3 12.2744 3.1 12.5744 3.4 12.7744L7.4 15.7744C7.6 15.8744 7.8 15.9744 8 15.9744C8.3 15.9744 8.6 15.8744 8.8 15.5744C9.1 15.1744 9 14.4744 8.6 14.1744L7 12.9744Z" fill="white"/>
<path d="M17 12.9744H5C4.4 12.9744 4 12.5744 4 11.9744C4 11.3744 4.4 10.9744 5 10.9744H17.1L15.5 9.77443C15.1 9.47443 15 8.77443 15.3 8.37443C15.6 7.97443 16.3 7.87443 16.7 8.17443L20.6 11.1744C20.9 11.3744 21 11.6744 21 11.9744C21 12.2744 20.9 12.5744 20.6 12.7744L16.6 15.7744C16.4 15.8744 16.2 15.9744 16 15.9744C15.7 15.9744 15.4 15.8744 15.2 15.5744C14.9 15.1744 15 14.4744 15.4 14.1744L17 12.9744Z" fill="white"/>
</svg>
