<svg width="24" height="24" viewBox="0 0 24 24" fill="none" xmlns="http://www.w3.org/2000/svg">
<path d="M7 12.9744H20C20.6 12.9744 21 12.5744 21 11.9744C21 11.3744 20.6 10.9744 20 10.9744H6.9L8.5 9.77443C8.9 9.47443 9 8.77443 8.7 8.37443C8.4 7.97443 7.7 7.87443 7.3 8.17443L3.4 11.1744C3.1 11.3744 3 11.6744 3 11.9744C3 12.2744 3.1 12.5744 3.4 12.7744L7.4 15.7744C7.6 15.8744 7.8 15.9744 8 15.9744C8.3 15.9744 8.6 15.8744 8.8 15.5744C9.1 15.1744 9 14.4744 8.6 14.1744L7 12.9744Z" fill="white"/>
</svg>
