<svg width="32" height="32" viewBox="0 0 32 32" fill="none" xmlns="http://www.w3.org/2000/svg">
<path d="M29 15C29.5523 15 30 15.4477 30 16C30 16.5523 29.5523 17 29 17V16V15ZM2.29289 16.7071C1.90237 16.3166 1.90237 15.6834 2.29289 15.2929L8.65685 8.92893C9.04738 8.53841 9.68054 8.53841 10.0711 8.92893C10.4616 9.31946 10.4616 9.95262 10.0711 10.3431L4.41421 16L10.0711 21.6569C10.4616 22.0474 10.4616 22.6805 10.0711 23.0711C9.68054 23.4616 9.04738 23.4616 8.65685 23.0711L2.29289 16.7071ZM29 16V17H3V16V15H29V16Z" fill="white"/>
</svg>
