<svg width="24" height="24" viewBox="0 0 24 24" fill="none" xmlns="http://www.w3.org/2000/svg">
<path d="M17 12.9744H4C3.4 12.9744 3 12.5744 3 11.9744C3 11.3744 3.4 10.9744 4 10.9744H17.1L15.5 9.77443C15.1 9.47443 15 8.77443 15.3 8.37443C15.6 7.97443 16.3 7.87443 16.7 8.17443L20.6 11.1744C20.9 11.3744 21 11.6744 21 11.9744C21 12.2744 20.9 12.5744 20.6 12.7744L16.6 15.7744C16.4 15.8744 16.2 15.9744 16 15.9744C15.7 15.9744 15.4 15.8744 15.2 15.5744C14.9 15.1744 15 14.4744 15.4 14.1744L17 12.9744Z" fill="white"/>
</svg>
