<svg width="32" height="32" viewBox="0 0 32 32" fill="none" xmlns="http://www.w3.org/2000/svg">
<path d="M6 5.78197C6 5.3501 6.3501 5 6.78197 5C6.98046 5 7.17153 5.07549 7.31643 5.21115L17.4265 14.6773C17.7924 15.0199 18 15.4987 18 16C18 16.5013 17.7924 16.9801 17.4265 17.3227L7.31643 26.7888C7.17153 26.9245 6.98046 27 6.78197 27C6.3501 27 6 26.6499 6 26.218V5.78197Z" fill="white"/>
<path d="M17 5.78197C17 5.3501 17.3501 5 17.782 5C17.9805 5 18.1715 5.07549 18.3164 5.21115L28.4265 14.6773C28.7924 15.0199 29 15.4987 29 16C29 16.5013 28.7924 16.9801 28.4265 17.3227L18.3164 26.7888C18.1715 26.9245 17.9805 27 17.782 27C17.3501 27 17 26.6499 17 26.218V5.78197Z" fill="white"/>
</svg>
