<svg width="24" height="24" viewBox="0 0 24 24" fill="none" xmlns="http://www.w3.org/2000/svg">
<path fill-rule="evenodd" clip-rule="evenodd" d="M20.858 10.6736L15.759 6.45959C15.15 5.95759 14.282 5.85659 13.549 6.20059C12.902 6.50659 12.5 7.11359 12.5 7.78659V10.3776L7.759 6.45959C7.15 5.95759 6.281 5.85659 5.549 6.20059C4.902 6.50659 4.5 7.11359 4.5 7.78659V16.2126C4.5 16.8856 4.902 17.4926 5.549 17.7986C5.838 17.9346 6.149 18.0006 6.455 18.0006C6.926 18.0006 7.39 17.8436 7.759 17.5386L12.5 13.6226V16.2126C12.5 16.8856 12.902 17.4926 13.549 17.7986C13.838 17.9346 14.149 18.0006 14.455 18.0006C14.926 18.0006 15.39 17.8436 15.759 17.5386L20.858 13.3256C21.266 12.9896 21.5 12.5056 21.5 11.9996C21.5 11.4936 21.266 11.0096 20.858 10.6736Z" fill="white"/>
</svg>
