<svg width="32" height="32" viewBox="0 0 32 32" fill="none" xmlns="http://www.w3.org/2000/svg">
<path d="M7 30H6C3.79086 30 2 28.2091 2 26V25H7V30ZM19 30H13V25H19V30ZM30 26C30 28.2091 28.2091 30 26 30H25V25H30V26ZM13 25H7V19H13V25ZM25 25H19V19H25V25ZM19 19H13V13H19V19ZM30 19H25V13H30V19ZM7 19H2V13H7V19ZM13 13H7V7H13V13ZM25 13H19V7H25V13ZM19 7H13V2H19V7ZM26 2C28.2091 2 30 3.79086 30 6V7H25V2H26ZM7 7H2V6C2 3.79086 3.79086 2 6 2H7V7Z" fill="white" fill-opacity="0.64"/>
<rect x="2.5" y="2.5" width="27" height="27" rx="3.5" fill="white" fill-opacity="0.48" stroke="white"/>
</svg>
