<svg width="32" height="32" viewBox="0 0 32 32" fill="none" xmlns="http://www.w3.org/2000/svg">
<g clip-path="url(#clip0_34_33)">
<mask id="path-1-inside-1_34_33" fill="white">
<path d="M15.8046 26.6807C15.4738 27.0113 15.0371 27.2156 14.5713 27.258L8.44763 27.8146C7.85658 27.8683 7.2722 27.6569 6.8525 27.2373L6.76273 27.1475C6.34312 26.7278 6.13171 26.1434 6.18544 25.5524L6.74201 19.4287C6.78436 18.9629 6.98866 18.5262 7.3193 18.1954L16 9.51472L24.4853 18L15.8046 26.6807Z"/>
</mask>
<path d="M15.8046 26.6807L16.5115 27.388L16.5117 27.3878L15.8046 26.6807ZM14.5713 27.258L14.6618 28.2539L14.6618 28.2539L14.5713 27.258ZM8.44763 27.8146L8.35711 26.8187L8.35709 26.8187L8.44763 27.8146ZM6.8525 27.2373L6.14539 27.9444L6.14547 27.9445L6.8525 27.2373ZM6.76273 27.1475L6.05554 27.8545L6.05562 27.8546L6.76273 27.1475ZM6.18544 25.5524L7.18133 25.6429L7.18134 25.6429L6.18544 25.5524ZM6.74201 19.4287L5.74612 19.3382L5.74612 19.3382L6.74201 19.4287ZM7.3193 18.1954L6.61219 17.4883L6.61203 17.4885L7.3193 18.1954ZM16 9.51472L16.7071 8.80761L16 8.1005L15.2929 8.80761L16 9.51472ZM24.4853 18L25.1924 18.7071L25.8995 18L25.1924 17.2929L24.4853 18ZM15.8046 26.6807L15.0976 25.9734C14.9324 26.1386 14.7139 26.2409 14.4807 26.2621L14.5713 27.258L14.6618 28.2539C15.3603 28.1904 16.0151 27.8841 16.5115 27.388L15.8046 26.6807ZM14.5713 27.258L14.4808 26.2621L8.35711 26.8187L8.44763 27.8146L8.53815 28.8105L14.6618 28.2539L14.5713 27.258ZM8.44763 27.8146L8.35709 26.8187C8.06142 26.8455 7.76926 26.7398 7.55952 26.5301L6.8525 27.2373L6.14547 27.9445C6.77513 28.574 7.65175 28.891 8.53817 28.8105L8.44763 27.8146ZM6.8525 27.2373L7.5596 26.5302L7.46983 26.4404L6.76273 27.1475L6.05562 27.8546L6.14539 27.9444L6.8525 27.2373ZM6.76273 27.1475L7.46991 26.4405C7.26022 26.2307 7.15445 25.9386 7.18133 25.6429L6.18544 25.5524L5.18955 25.4618C5.10896 26.3482 5.42603 27.2249 6.05554 27.8545L6.76273 27.1475ZM6.18544 25.5524L7.18134 25.6429L7.73791 19.5192L6.74201 19.4287L5.74612 19.3382L5.18955 25.4619L6.18544 25.5524ZM6.74201 19.4287L7.7379 19.5192C7.7591 19.2861 7.86143 19.0676 8.02657 18.9024L7.3193 18.1954L6.61203 17.4885C6.11588 17.9849 5.80961 18.6397 5.74612 19.3382L6.74201 19.4287ZM7.3193 18.1954L8.0264 18.9025L16.7071 10.2218L16 9.51472L15.2929 8.80761L6.61219 17.4883L7.3193 18.1954ZM16 9.51472L15.2929 10.2218L23.7782 18.7071L24.4853 18L25.1924 17.2929L16.7071 8.80761L16 9.51472ZM24.4853 18L23.7782 17.2929L15.0975 25.9736L15.8046 26.6807L16.5117 27.3878L25.1924 18.7071L24.4853 18Z" fill="white" mask="url(#path-1-inside-1_34_33)"/>
<path d="M15.8053 26.6814C15.4746 27.0116 15.0381 27.2157 14.5727 27.258L8.44763 27.8146C7.85659 27.8683 7.2722 27.6569 6.8525 27.2373L6.76273 27.1475C6.34313 26.7278 6.13171 26.1434 6.18544 25.5524L6.74201 19.4287C6.78436 18.9629 6.98866 18.5262 7.3193 18.1954L7.51472 18H24.5005L15.8053 26.6814Z" fill="white" fill-opacity="0.32"/>
<rect x="14.5858" y="6.68629" width="18" height="2" rx="1" transform="rotate(45 14.5858 6.68629)" fill="white"/>
<path d="M20.2426 6.68629C21.0237 5.90524 22.29 5.90524 23.0711 6.68629L27.3137 10.9289C28.0948 11.71 28.0948 12.9763 27.3137 13.7574L23.7782 17.2929L16.7071 10.2218L20.2426 6.68629Z" fill="white"/>
</g>
<defs>
<clipPath id="clip0_34_33">
<rect width="32" height="32" fill="white"/>
</clipPath>
</defs>
</svg>
