<svg width="24" height="24" viewBox="0 0 24 24" fill="none" xmlns="http://www.w3.org/2000/svg">
<path d="M12.0001 2C15.0341 2.00003 17.964 3.35464 19.8653 5.4248C21.7824 7.51218 22.7133 10.4152 21.4864 13.3818C20.8974 14.8062 20.0983 15.7394 19.1476 16.3018C18.2099 16.8563 17.2281 16.9886 16.3897 17.0039C15.9723 17.0115 15.5702 16.9899 15.2247 16.9707C14.8635 16.9506 14.5797 16.9339 14.3312 16.9395C14.081 16.945 13.9487 16.9731 13.8829 16.998C13.8732 17.0018 13.8658 17.0046 13.8614 17.0068C13.7406 17.2163 13.7505 17.3297 13.7706 17.4229C13.8068 17.5901 13.8952 17.7488 14.0821 18.0996C14.2322 18.3813 14.4931 18.869 14.505 19.4502C14.5183 20.1068 14.2248 20.6893 13.7071 21.207C13.3233 21.5909 12.8227 21.7804 12.3487 21.8652C11.8674 21.9513 11.3379 21.9443 10.8028 21.8721C9.73204 21.7275 8.51234 21.3055 7.3458 20.6426C5.02151 19.3216 2.7095 16.9186 2.31846 13.4883C1.94714 10.2309 2.80411 7.35156 4.5753 5.27637C6.34796 3.19952 8.97708 2 12.0001 2ZM12.0001 4C9.52318 4 7.46475 4.97243 6.09678 6.5752C4.72736 8.17967 3.98957 10.4879 4.30576 13.2617C4.60226 15.8626 6.36935 17.7877 8.33408 18.9043C9.31169 19.4598 10.2889 19.7841 11.0704 19.8896C11.4616 19.9424 11.7733 19.9364 11.9962 19.8965C12.2246 19.8556 12.2931 19.7928 12.2931 19.793C12.4229 19.6631 12.4735 19.5774 12.4923 19.5371C12.5072 19.5051 12.5061 19.4942 12.506 19.4912C12.5051 19.4476 12.4827 19.3528 12.3165 19.041C12.1871 18.7983 11.9258 18.3512 11.8165 17.8467C11.6913 17.2686 11.7594 16.6441 12.1358 15.9971L12.2413 15.834C12.791 15.0633 13.6826 14.9539 14.2872 14.9404C14.6308 14.9328 15.0025 14.9551 15.336 14.9736C15.6853 14.9931 16.0184 15.01 16.3526 15.0039C17.0181 14.9918 17.6088 14.8877 18.129 14.5801C18.6362 14.2801 19.181 13.7249 19.6388 12.6182C20.5055 10.5226 19.905 8.42521 18.3927 6.77832C16.8644 5.11428 14.4659 4.00003 12.0001 4ZM6.0001 13C6.0001 11.8954 6.89553 11 8.0001 11C9.10461 11.0001 10.0001 11.8955 10.0001 13C10.0001 14.1045 9.10461 14.9999 8.0001 15C6.89553 15 6.0001 14.1046 6.0001 13ZM14.5001 10C14.5001 8.89543 15.3955 8 16.5001 8C17.6046 8.00007 18.5001 8.89547 18.5001 10C18.5001 11.1045 17.6046 11.9999 16.5001 12C15.3955 12 14.5001 11.1046 14.5001 10ZM9.0001 8.5C9.0001 7.39543 9.89553 6.5 11.0001 6.5C12.1046 6.50007 13.0001 7.39547 13.0001 8.5C13.0001 9.60453 12.1046 10.4999 11.0001 10.5C9.89553 10.5 9.0001 9.60457 9.0001 8.5Z" fill="white"/>
</svg>
