<svg width="32" height="32" viewBox="0 0 32 32" fill="none" xmlns="http://www.w3.org/2000/svg">
<path d="M26 5.78197C26 5.3501 25.6499 5 25.218 5C25.0195 5 24.8285 5.07549 24.6836 5.21115L14.5735 14.6773C14.2076 15.0199 14 15.4987 14 16C14 16.5013 14.2076 16.9801 14.5735 17.3227L24.6836 26.7888C24.8285 26.9245 25.0195 27 25.218 27C25.6499 27 26 26.6499 26 26.218V5.78197Z" fill="white"/>
<path d="M15 5.78197C15 5.3501 14.6499 5 14.218 5C14.0195 5 13.8285 5.07549 13.6836 5.21115L3.57355 14.6773C3.20764 15.0199 3 15.4987 3 16C3 16.5013 3.20764 16.9801 3.57355 17.3227L13.6836 26.7888C13.8285 26.9245 14.0195 27 14.218 27C14.6499 27 15 26.6499 15 26.218V5.78197Z" fill="white"/>
</svg>
