<svg width="24" height="24" viewBox="0 0 24 24" fill="none" xmlns="http://www.w3.org/2000/svg">
<path d="M16.9772 10.2319L12 14.5L7.02287 10.2319C6.62915 9.87791 6.04322 9.93591 5.71543 10.3599C5.57057 10.5469 5.5 10.7739 5.5 10.9999C5.5 11.2859 5.61422 11.5699 5.83429 11.7679L11.4058 16.768C11.4494 16.807 11.5005 16.827 11.5488 16.856C11.5878 16.88 11.6212 16.909 11.6639 16.927C11.7707 16.972 11.883 16.999 11.9963 16.999L12 17L12.0038 16.999C12.117 16.999 12.2294 16.972 12.3362 16.927C12.3789 16.909 12.4123 16.88 12.4513 16.856C12.4996 16.827 12.5507 16.807 12.5943 16.768L18.1658 11.7679C18.5595 11.4149 18.6134 10.7849 18.2847 10.3599C17.9569 9.93591 17.3709 9.87791 16.9772 10.2319Z" fill="white"/>
</svg>
